<svg width="231" height="102" viewBox="0 0 231 102" fill="none" xmlns="http://www.w3.org/2000/svg">
<path d="M118.674 88.3943C123.039 75.7481 127.928 64.2515 133.005 53.7365C135.441 59.1271 134.779 66.3819 132.05 73.0225C129.26 79.8119 124.369 85.8121 118.674 88.3943ZM43.0822 21.6197C48.2239 20.2099 55.9612 19.9674 64.0288 19.9954C59.3869 26.6386 54.9675 37.3012 51.0285 48.7335C48.4831 55.7703 46.0071 60.9005 43.2033 64.2675C40.4195 67.6105 37.3279 69.2 33.5 69.2C30.2373 69.2 27.4572 67.6259 25.3742 64.6037C23.2802 61.5656 21.8952 57.0633 21.4988 51.2659L21.4592 50.6858L20.8915 50.8119C18.1089 51.4303 16.2397 52.5801 15.0746 54.1381C13.913 55.6914 13.5 57.5856 13.5 59.6C13.5 64.6434 16.1561 68.7554 19.9772 71.5891C23.7927 74.4187 28.7983 76 33.6 76C38.6588 76 43.5774 74.5139 48.1259 70.6042C52.661 66.706 56.7991 60.4241 60.3655 50.8827C61.2167 48.8138 62.0234 46.822 62.7947 44.9176C65.293 38.7493 67.4197 33.4985 69.4815 29.5174C70.8301 26.9135 72.1313 24.8932 73.4626 23.5289C74.7886 22.1699 76.1051 21.5 77.5 21.5H77.7831L77.9287 21.2572C80.5206 16.9375 77.405 12.9044 74.2052 12.9C61.8165 12.6503 50.5683 12.6478 42.4126 14.0952C38.3363 14.8186 34.9766 15.9129 32.6255 17.5609C30.2484 19.2272 28.9 21.4652 28.9 24.4C28.9 27.033 29.9559 29.1934 31.6401 30.4395C33.3322 31.6913 35.5996 31.9747 37.9021 30.9573L38.4006 30.7371L38.1383 30.2594C36.7867 27.7975 36.8144 26.0396 37.6601 24.7362C38.5401 23.3799 40.3978 22.3558 43.0822 21.6197ZM85.5236 40.9803C84.4374 41.6121 82.8078 42.2696 80.6005 42.8755C81.4417 41.366 82.3556 40.088 83.2504 39.144C84.3705 37.9623 85.369 37.4 86.1 37.4C86.3161 37.4 86.5503 37.525 86.7556 37.8769C86.9625 38.2316 87.1 38.7637 87.1 39.4C87.1 39.5301 87.0332 39.741 86.7741 40.0308C86.5182 40.3171 86.1098 40.6393 85.5236 40.9803ZM218.85 68.8974L219.21 68.861L219.288 68.5085C219.502 67.5447 219.488 66.6597 219.179 65.8979C218.866 65.1262 218.273 64.5385 217.442 64.1373C215.821 63.354 213.238 63.2536 209.722 63.806L209.714 63.8074C207.735 64.1516 205.904 64.4958 204.097 64.8394C205.122 62.2035 206.069 59.5396 206.984 56.9542L207.162 56.4506C208.101 53.796 209.007 51.2338 209.933 48.8657C211.968 46.577 213.764 44.3055 215.058 42.2956C215.711 41.2811 216.242 40.3242 216.611 39.4587C216.978 38.6001 217.2 37.797 217.2 37.1C217.2 35.615 216.643 34.3634 215.548 33.4956C214.468 32.64 212.919 32.2 211 32.2C210.099 32.2 209.272 32.8008 208.522 33.6604C207.756 34.5377 206.982 35.7882 206.194 37.3073C204.629 40.3232 202.96 44.5032 201.178 49.2014C198.968 51.0623 196.677 52.8122 194.599 54.1C193.545 54.7536 192.555 55.2825 191.665 55.6467C190.805 55.9987 190.068 56.185 189.473 56.1991C189.439 56.1138 189.4 55.9335 189.4 55.6C189.4 55.393 189.456 55.0558 189.583 54.5861C189.707 54.1257 189.89 53.57 190.124 52.9393C190.591 51.6786 191.25 50.1421 192.015 48.5125C193.546 45.2508 195.485 41.6488 197.117 39.1754L197.118 39.1748C197.754 38.2083 198.189 37.3896 198.436 36.6997C198.681 36.017 198.76 35.4033 198.604 34.8813C198.439 34.3301 198.039 33.9744 197.536 33.7685C197.052 33.5701 196.451 33.5 195.8 33.5C194.978 33.5 193.821 33.7153 192.658 34.1289C191.493 34.5429 190.274 35.1728 189.357 36.0359L189.352 36.0411L189.346 36.0464C187.419 37.9741 185.708 40.5851 184.302 43.4748C180.301 46.5226 175.227 49.4513 170.648 51.6233C168.342 52.7173 166.17 53.6155 164.332 54.239C162.477 54.868 161.012 55.2 160.1 55.2C159.744 55.2 159.612 55.1295 159.554 55.0714C159.494 55.0118 159.4 54.8523 159.4 54.4C159.4 52.0367 160.242 48.7796 161.691 44.976C171.076 40.9317 177.378 36.5803 181.347 32.4855C185.337 28.3686 187 24.4755 187 21.4C187 18.1191 186.154 15.5003 184.409 13.7018C182.662 11.9008 180.089 11 176.8 11C175.978 11 175.091 11.2793 174.175 11.7544C173.255 12.2315 172.278 12.9213 171.267 13.7799C169.246 15.4971 167.052 17.924 164.877 20.7848C160.567 26.4522 156.285 33.8788 153.514 41.0126C148.679 42.8581 143.241 44.4437 137.522 45.6072C143.874 33.4115 150.702 22.6155 158.007 12.2907C159.335 10.4515 159.893 8.82418 159.747 7.59089C159.671 6.96063 159.409 6.42419 158.962 6.04861C158.519 5.6756 157.94 5.5 157.3 5.5C153.869 5.5 150.44 7.94751 147.803 11.3963L147.801 11.3991C142.585 18.3205 136.281 29.0261 130.188 40.4103C127.024 43.9101 122.552 47.6151 118.393 50.4493C116.306 51.8718 114.308 53.0678 112.604 53.906C110.875 54.7564 109.524 55.2 108.7 55.2C108.44 55.2 108.279 55.1815 108.177 55.1544C108.129 55.1416 108.104 55.1292 108.091 55.1217C108.085 55.1183 108.081 55.1155 108.079 55.1135C108.077 55.1117 108.076 55.1105 108.076 55.1097C108.072 55.1053 108.046 55.0715 108.027 54.9473C108.007 54.8207 108 54.6489 108 54.4C108 52.0196 109.155 48.5327 111.041 44.4471C112.885 40.4556 115.392 35.9635 118.082 31.4997C120.888 31.4934 123.592 31.3934 125.739 31.1985C127.313 31.0946 128.723 30.7457 129.831 30.2686C130.917 29.8005 131.79 29.1746 132.177 28.4641C132.379 28.0931 132.461 27.6712 132.326 27.2487C132.193 26.8343 131.878 26.5035 131.456 26.2498C130.63 25.7523 129.234 25.4507 127.212 25.4002V25.4H127.2C126.157 25.4 125.113 25.3752 124.075 25.3501L124.034 25.3492C123.306 25.3316 122.581 25.3141 121.865 25.3055C122.417 24.3824 123.014 23.4703 123.586 22.5985C123.838 22.2138 124.085 21.8369 124.321 21.4704L124.324 21.465C124.67 20.912 124.85 20.3727 124.831 19.8648C124.812 19.3418 124.583 18.9044 124.214 18.5784C123.51 17.957 122.334 17.76 121.091 17.8772C118.563 18.1154 115.258 19.6924 113.368 22.9489L113.368 22.9489L113.363 22.9572C113.201 23.2479 113.034 23.5201 112.86 23.8028C112.77 23.9494 112.678 24.0989 112.584 24.2553C112.371 24.6104 112.159 24.9849 111.973 25.3936C107.098 25.3044 102.7 25.4023 98.6938 25.5C97.3344 25.5008 96.108 25.7622 95.1335 26.17C94.1738 26.5717 93.3975 27.1421 93.0262 27.8059C92.8352 28.1471 92.7416 28.5334 92.8198 28.929C92.8983 29.3258 93.1364 29.6657 93.4842 29.9376C94.1574 30.464 95.3137 30.7967 96.9649 30.8988C100.506 31.1782 104.477 31.2846 108.223 31.3783C105.938 35.133 103.999 38.3821 102.494 41.1988C99.0332 44.6482 94.3922 48.151 89.8966 50.794C87.6384 52.1216 85.4257 53.227 83.4261 53.9992C81.4183 54.7745 79.6602 55.2 78.3 55.2C77.7631 55.2 77.5505 55.1191 77.4596 55.0425C77.3944 54.9876 77.3 54.8538 77.3 54.4C77.3 52.7506 77.5599 50.9161 78.0018 49.1459C83.3643 48.3355 87.1057 47.0196 89.5319 45.5664C91.9797 44.1003 93.2 42.4194 93.2 40.9C93.2 38.496 92.4163 36.0181 90.68 34.136C88.9356 32.2451 86.2704 31 82.6 31C81.1048 31 79.4434 31.822 77.8297 33.1357C76.202 34.4606 74.56 36.3364 73.0948 38.5626C70.1673 43.011 67.9 48.9301 67.9 54.8C67.9 56.8363 69.4046 58.8159 71.3121 60.2497C73.2363 61.6961 75.7142 62.7 77.9 62.7C80.6669 62.7 84.251 61.5336 88.0117 59.6469C91.4756 57.9092 95.1349 55.5373 98.5167 52.823C98.5 53.3063 98.5 53.7995 98.5 54.2811V54.3C98.5 56.2982 99.761 58.3732 101.505 59.9237C103.258 61.4817 105.596 62.6 107.9 62.6C109.83 62.6 112.446 61.674 115.315 60.1009C117.648 58.8222 120.188 57.0932 122.725 55.0151C119.289 62.2163 116.244 69.1535 113.996 74.9955C112.761 78.2035 111.765 81.0874 111.077 83.5069C110.392 85.915 110 87.902 110 89.3C110 91.3365 111.405 93.0163 112.926 94.1508C113.698 94.7263 114.528 95.184 115.286 95.4992C116.033 95.8096 116.754 96 117.3 96C120.096 96 123.774 94.6124 127.56 91.8146C131.357 89.008 135.302 84.7543 138.634 78.9489L138.634 78.9486C141.035 74.7596 142.272 69.2752 142.5 64.1346C142.712 59.3409 142.049 54.7564 140.556 51.7526C144.356 50.9394 147.711 49.9099 150.878 48.8661C150.356 51.0154 150.2 53.119 150.2 54.9C150.2 55.7715 150.531 56.6925 151.054 57.5636C151.58 58.4399 152.319 59.2978 153.184 60.0518C154.902 61.5502 157.189 62.7 159.4 62.7C162.016 62.7 165.749 61.5087 169.737 59.6403C173.396 57.9258 177.324 55.6147 180.893 53.0407C180.713 54.1707 180.6 55.2325 180.6 56.3C180.6 58.7296 182.146 60.5857 183.832 61.8052C184.682 62.4196 185.588 62.8893 186.403 63.2065C187.206 63.5193 187.96 63.7 188.5 63.7C189.854 63.7 191.381 63.2422 192.998 62.491C194.241 61.9137 195.558 61.153 196.921 60.2633C196.393 61.7097 195.829 63.1542 195.262 64.605C194.913 65.4974 194.563 66.3922 194.221 67.2912C185.354 69.9405 178.938 73.2136 174.719 76.7022C170.465 80.2195 168.4 83.9977 168.4 87.6C168.4 90.1687 169.682 92.5175 171.468 94.2127C173.251 95.9045 175.594 97 177.8 97C183.358 97 187.936 93.9292 191.775 89.2288C195.564 84.5887 198.682 78.3049 201.366 71.6318C206.292 70.5582 212.088 69.5835 218.85 68.8974ZM178.1 90.1C177.604 90.1 177.198 89.8959 176.904 89.5264C176.603 89.1476 176.4 88.566 176.4 87.8C176.4 86.2718 177.215 84.0667 179.629 81.6536C181.886 79.3957 185.524 76.9777 191.119 74.8037C189.093 79.0344 187.036 82.7505 184.93 85.4687C182.622 88.4468 180.352 90.1 178.1 90.1ZM176.255 27.351C173.86 29.9837 170.428 32.6651 166.103 35.2052C168.528 30.7564 171.213 26.4737 173.591 23.22C174.89 21.4422 176.089 19.9838 177.096 18.9752C177.6 18.4701 178.045 18.0897 178.42 17.8388C178.811 17.5782 179.064 17.5 179.2 17.5C179.421 17.5 179.657 17.6302 179.862 17.9627C180.068 18.2955 180.2 18.7758 180.2 19.3C180.2 21.7214 178.867 24.4806 176.255 27.351Z" fill="white" stroke="black"/>
</svg>
